<svg xmlns="http://www.w3.org/2000/svg" width="111.24" height="126.45" viewBox="0 0 111.24 126.45"><defs><style>.a,.c{fill:none;}.a,.c,.d{stroke:#231f20;stroke-width:2px;}.a{stroke-linecap:round;stroke-linejoin:round;}.b{fill:#231f20;}.c,.d{stroke-miterlimit:10;}.d{fill:#fff;}</style></defs><polyline class="a" points="54.31 34.1 54.31 35.1 58.31 35.1 58.31 34.1"/><rect class="a" x="60.31" y="26.11" width="6" height="5"/><rect class="b" x="62.31" y="28.11" width="2" height="2" rx="0.87"/><rect class="a" x="46.31" y="26.11" width="6" height="5"/><rect class="b" x="48.31" y="28.11" width="2" height="2" rx="0.87"/><polygon class="a" points="57.07 102.11 72.31 102.11 72.31 116.11 102.31 116.11 102.31 102.11 87.31 102.11 87.31 73.11 102.31 73.11 102.31 45.1 72.31 45.1 72.31 18.11 57.07 18.11 56.96 18.11 41.31 18.11 41.31 45.1 11.31 45.1 11.31 73.11 25.32 73.11 25.32 102.11 11.31 102.11 11.31 116.11 41.31 116.11 41.31 102.11 56.96 102.11 57.07 102.11"/><polygon class="a" points="79.31 30.9 79.31 10.11 55.88 10.11 33.31 10.11 33.31 32.1 41.31 32.1 41.31 17.11 56.56 17.11 72.31 17.11 72.31 31.11 72.42 31.11 79.31 31.11 79.42 31.11 79.31 30.9"/><line class="a" x1="25.31" y1="73.11" x2="25.31" y2="61.11"/><line class="a" x1="87.31" y1="73.11" x2="87.31" y2="61.11"/><line class="a" x1="3.53" y1="55.06" x2="3.53" y2="61.11"/><line class="a" x1="7.47" y1="53.93" x2="7.47" y2="63.3"/><line class="a" x1="106.58" y1="51.82" x2="106.58" y2="61.82"/><line class="a" x1="110.24" y1="49.43" x2="110.24" y2="60.13"/><path class="a" d="M80,2.91s3,1.52,3.38,3"/><path class="a" d="M83.35,1a5.93,5.93,0,0,1,4,2.67"/><path class="a" d="M31.4,6.56a5.83,5.83,0,0,0-1.76,3.55"/><path class="a" d="M27,4.43s-1.76,0-2.75,3.9"/><path class="a" d="M96.72,77.73a18.45,18.45,0,0,0,1.13-3.81"/><path class="a" d="M93.42,83.22A11.48,11.48,0,0,0,96,80.54"/><path class="a" d="M78.49,92.86a2.11,2.11,0,0,0,1.69-.56"/><path class="a" d="M79,96.8c1.19-.35,3.23-1.83,3.52-3"/><path class="a" d="M82.51,99.62A3.13,3.13,0,0,0,85.18,98"/><path class="a" d="M90.39,47.88C94.06,50.15,98.56,53,97.85,65"/><path class="a" d="M89.47,51.82s6.27,6.06,2.61,15.84"/><path class="a" d="M52.8,110.25c2.68.21,6.9,1.33,14.22-2.4"/><path class="a" d="M64.84,111.65c-1.55,1.13-4.3,1.41-6.62,1.27"/><path class="a" d="M36.05,92.58c.66,1.57,5.3,7.48,14.83,5.42"/><path class="a" d="M37.08,98.23s1.69,2.77,10.33,2.44"/><path class="a" d="M6.16,117a7.84,7.84,0,0,0,4.22,6.1"/><path class="a" d="M3.76,120a5.39,5.39,0,0,0,3.62,5.44"/><line class="a" x1="31.07" y1="76.5" x2="30.89" y2="78.66"/><line class="a" x1="50.31" y1="40.11" x2="63.31" y2="40.11"/><line class="a" x1="46.31" y1="21.11" x2="51.31" y2="21.11"/><line class="a" x1="61.31" y1="21.11" x2="66.31" y2="21.11"/><line class="a" x1="33.42" y1="77.35" x2="33.42" y2="80.63"/><path class="a" d="M32.78,62.13a6.33,6.33,0,0,1,2.07-3.62"/><path class="a" d="M30.49,59.16a1.85,1.85,0,0,1,1.29-2"/><polygon class="c" points="17.32 37.18 58.31 55.06 59.91 43.33 72.51 55.06 97.92 30.11 81.38 63.3 90.39 71.67 79.42 72.23 104.89 100.7 68.76 84.48 75.47 100.7 61.31 87.58 58.22 121.51 47.41 89.83 6.16 100.7 41.54 78.66 28.87 69.7 41.12 59.16 17.32 37.18"/><path class="a" d="M48.77,45.72a4.6,4.6,0,0,1,3.54-2.39"/><path class="a" d="M55.8,46.71c1.41-.75,8.83-1.51,13-.24"/><path class="a" d="M58.33,61.66c.18-8.37,4.9-.26,6.29,3,3.14,3.71,7.78-1.5,11.72.12,5.31,7-12,7.66-6,15.35-.33,6.68-6.65-.85-9.81-.82-4.32-.22-20.28,4.09-11.4-4.42C53.4,70.87,59.59,68.67,58.33,61.66Z"/><polygon class="d" points="53.08 61.1 58.43 64.49 68.76 56.43 60.92 67.66 66.39 74.7 58.57 71.95 50.54 85.75 52.82 71.89 43.79 67.11 54.77 67.66 53.08 61.1"/></svg>