<svg xmlns="http://www.w3.org/2000/svg" width="93" height="108" viewBox="0 0 93 108"><defs><style>.a{fill:none;stroke:#231f20;stroke-linecap:round;stroke-linejoin:round;stroke-width:2px;}.b{fill:#231f20;}</style></defs><polyline class="a" points="44 25 44 26 48 26 48 25"/><rect class="a" x="50" y="17" width="6" height="5"/><rect class="b" x="52" y="19" width="2" height="2" rx="0.87"/><rect class="a" x="36" y="17" width="6" height="5"/><rect class="b" x="38" y="19" width="2" height="2" rx="0.87"/><polygon class="a" points="46.75 93 62 93 62 107 92 107 92 93 77 93 77 64 92 64 92 36 62 36 62 9 46.75 9 46.65 9 31 9 31 36 1 36 1 64 15 64 15 93 1 93 1 107 31 107 31 93 46.65 93 46.75 93"/><polygon class="a" points="69 21.8 69 1 45.56 1 23 1 23 23 31 23 31 8 46.25 8 62 8 62 22 62.1 22 69 22 69.1 22 69 21.8"/><line class="a" x1="15" y1="64" x2="15" y2="52"/><line class="a" x1="77" y1="64" x2="77" y2="52"/><line class="a" x1="40" y1="31" x2="53" y2="31"/><line class="a" x1="36" y1="14" x2="41" y2="14"/><line class="a" x1="51" y1="14" x2="56" y2="14"/><path class="a" d="M43.21,61.44c.42,2.11,3.24,3.94,4.08,1.83"/></svg>