<svg xmlns="http://www.w3.org/2000/svg" width="93" height="108" viewBox="0 0 93 108"><defs><style>.a{fill:none;stroke:#231f20;stroke-linecap:round;stroke-linejoin:round;stroke-width:2px;}.b{fill:#231f20;}</style></defs><polyline class="a" points="44 25 44 26 48 26 48 25"/><rect class="a" x="50" y="17" width="6" height="5"/><rect class="b" x="52" y="19" width="2" height="2" rx="0.87"/><rect class="a" x="36" y="17" width="6" height="5"/><rect class="b" x="38" y="19" width="2" height="2" rx="0.87"/><polygon class="a" points="46.75 93 62 93 62 107 92 107 92 93 77 93 77 64 92 64 92 36 62 36 62 9 46.75 9 46.65 9 31 9 31 36 1 36 1 64 15 64 15 93 1 93 1 107 31 107 31 93 46.65 93 46.75 93"/><polygon class="a" points="69 21.8 69 1 45.56 1 23 1 23 23 31 23 31 8 46.25 8 62 8 62 22 62.1 22 69 22 69.1 22 69 21.8"/><line class="a" x1="15" y1="64" x2="15" y2="52"/><line class="a" x1="77" y1="64" x2="77" y2="52"/><line class="a" x1="40" y1="31" x2="53" y2="31"/><line class="a" x1="36" y1="14" x2="41" y2="14"/><line class="a" x1="51" y1="14" x2="56" y2="14"/><path class="a" d="M51.64,50.32s7.86.3,8,7.68"/><path class="a" d="M34.18,65.45c-.07,3-.35,6.27,4.37,6.62"/><path class="a" d="M45.48,56.61c.18-2.94,4.07-4.76,4.46-.94,1,1.52,4.82.69,3.78,3.56-1.66.49-6.44,1.27-3.25,3.4,1,1.27.44,4.12-1.6,2.84-2.72-3.33-3.59,2.32-6.39,2.75s-2.09-2.82-.41-3.94c2.08-2.29-1.89-4.65-.41-7.31C42.71,56.21,44.83,58.71,45.48,56.61Z"/></svg>