<svg xmlns="http://www.w3.org/2000/svg" width="106.93" height="113.54" viewBox="0 0 106.93 113.54"><defs><style>.a{fill:none;stroke-linecap:round;stroke-linejoin:round;}.a,.c{stroke:#231f20;stroke-width:2px;}.b{fill:#231f20;}.c{fill:#fff;stroke-miterlimit:10;}</style></defs><polyline class="a" points="51.8 25 51.8 26 55.8 26 55.8 25"/><rect class="a" x="57.8" y="17" width="6" height="5"/><rect class="b" x="59.8" y="19" width="2" height="2" rx="0.87"/><rect class="a" x="43.8" y="17" width="6" height="5"/><rect class="b" x="45.8" y="19" width="2" height="2" rx="0.87"/><polygon class="a" points="54.55 93 69.8 93 69.8 107 99.8 107 99.8 93 84.8 93 84.8 64 99.8 64 99.8 36 69.8 36 69.8 9 54.55 9 54.45 9 38.8 9 38.8 36 8.8 36 8.8 64 22.8 64 22.8 93 8.8 93 8.8 107 38.8 107 38.8 93 54.45 93 54.55 93"/><path class="a" d="M105.93,104.57a10,10,0,0,1-5.63,8"/><polygon class="a" points="76.8 21.8 76.8 1 53.36 1 30.8 1 30.8 23 38.8 23 38.8 8 54.05 8 69.8 8 69.8 22 69.9 22 76.8 22 76.9 22 76.8 21.8"/><line class="a" x1="22.8" y1="64" x2="22.8" y2="52"/><line class="a" x1="84.8" y1="64" x2="84.8" y2="52"/><path class="a" d="M1,39.53c.75-3.57,4.22-5.92,7.41-7.42"/><line class="a" x1="47.8" y1="31" x2="60.8" y2="31"/><line class="a" x1="43.8" y1="14" x2="48.8" y2="14"/><line class="a" x1="58.8" y1="14" x2="63.8" y2="14"/><polygon class="a" points="47.13 60.5 52.79 59.89 52.79 54.54 59.19 58.39 64.05 56.42 61.53 62.61 64.87 65.76 62.57 67.17 62.8 69.99 59 68.2 47.13 60.5"/><line class="a" x1="73.62" y1="56.65" x2="78.12" y2="52"/><path class="a" d="M76.15,73.27a15.24,15.24,0,0,1-.28,3.59"/><line class="a" x1="73.62" y1="82.56" x2="75.87" y2="85.23"/><path class="a" d="M61.79,85.23c1.76,1.48,5.63.35,5.63.35"/><path class="a" d="M30.4,65s-2.53,5.56,2.53,8.87"/><path class="a" d="M27.44,72.91a4.58,4.58,0,0,0,1.34,2.68"/><path class="a" d="M41.59,39.2a6,6,0,0,1,5.63-1"/><path class="a" d="M68.2,42.43a4,4,0,0,1,2.67,1.27"/><path class="a" d="M73.62,41.1a2.62,2.62,0,0,1,2.54,1.69"/><line class="a" x1="35.75" y1="49.26" x2="44.97" y2="55.88"/><path class="a" d="M44.79,56.45c-.71,1-7.64,4.06-8.69,4.66-3.6,2-4.27,2.68-4.8,3.93a3.39,3.39,0,0,0,1.25,3.52c1.21.88,3.93,1.35,6.7,1.09s4.21.32,5.11,1.52c.57.75-.26,6.51-.52,7.42a14,14,0,0,0,0,7c.56,2.07.79,1.78,2.42,3.16a6,6,0,0,0,2,.57,3.31,3.31,0,0,0,2.59-.91,5.83,5.83,0,0,0,2.1-4.29c.16-1.64,0-3.3.25-4.93a19.53,19.53,0,0,1,1.57-4.62,2.31,2.31,0,0,1,.55-.87,1.76,1.76,0,0,1,1.6-.24c1.93.48,3.11,2.39,4,4.15s2,3.71,3.9,4.34c2.08.69,4.33-.49,5.93-2a4.26,4.26,0,0,0,1.12-1.45,4.7,4.7,0,0,0,.25-1.71,5.86,5.86,0,0,0-.66-3.55c-.35-.51-2.74-2-3-3.88a3,3,0,0,1,1.28-2.76c.86-.58,2-.67,2.88-1.17a3.32,3.32,0,0,0,1.63-2.07,2.94,2.94,0,0,0-.53-2.56A8.31,8.31,0,0,0,71,59.1,8.11,8.11,0,0,1,69.43,58a1.43,1.43,0,0,1-.42-.53A1.4,1.4,0,0,1,69,57a6.93,6.93,0,0,1,.44-1.85c.4-1,.81-2,1.27-3s1.53-5.67-1.18-6.43c-1.09-.55-2.11.21-3,.78a8.56,8.56,0,0,0-2.21,2.24,9,9,0,0,1-2,2.35,4.68,4.68,0,0,1-4.85-.16,13.8,13.8,0,0,1-3.62-3.57L50.5,43.11a6.58,6.58,0,0,0-2-1.87,5.22,5.22,0,0,0-2.9-.43c-1.37.11-3.64.1-4.31,1.49s0,2.33.09,3.23a5.49,5.49,0,0,0,1.46,2.69c.25.29.51.56.74.87A10.25,10.25,0,0,1,45,51.94C45.16,53.19,45.68,55.22,44.79,56.45Z"/><path class="c" d="M51.85,64.32a4.34,4.34,0,0,1,.69-1,7.6,7.6,0,0,1,1.27-1.06,4,4,0,0,1,2.71-1.06c1.13.16,1.9,1.24,3,1.65.89.35,1.92.2,2.78.62a3.34,3.34,0,0,1,1.17,1A2.32,2.32,0,0,1,64,66.33a1.76,1.76,0,0,1-1.33,1.25,3.19,3.19,0,0,1-1.88-.17,4,4,0,0,0-1.06-.32,2.29,2.29,0,0,0-1.7.82,17.61,17.61,0,0,1-1.32,1.41,3.27,3.27,0,0,1-3.62.24C51.39,68.53,51.05,66,51.85,64.32Z"/></svg>