<svg xmlns="http://www.w3.org/2000/svg" width="93" height="108" viewBox="0 0 93 108"><defs><style>.a{fill:none;stroke:#231f20;stroke-linecap:round;stroke-linejoin:round;stroke-width:2px;}.b{fill:#231f20;}</style></defs><polyline class="a" points="44 25 44 26 48 26 48 25"/><rect class="a" x="50" y="17" width="6" height="5"/><rect class="b" x="52" y="19" width="2" height="2" rx="0.87"/><rect class="a" x="36" y="17" width="6" height="5"/><rect class="b" x="38" y="19" width="2" height="2" rx="0.87"/><polygon class="a" points="46.75 93 62 93 62 107 92 107 92 93 77 93 77 64 92 64 92 36 62 36 62 9 46.75 9 46.65 9 31 9 31 36 1 36 1 64 15 64 15 93 1 93 1 107 31 107 31 93 46.65 93 46.75 93"/><polygon class="a" points="69 21.8 69 1 45.56 1 23 1 23 23 31 23 31 8 46.25 8 62 8 62 22 62.1 22 69 22 69.1 22 69 21.8"/><line class="a" x1="15" y1="64" x2="15" y2="52"/><line class="a" x1="77" y1="64" x2="77" y2="52"/><line class="a" x1="40" y1="31" x2="53" y2="31"/><line class="a" x1="36" y1="14" x2="41" y2="14"/><line class="a" x1="51" y1="14" x2="56" y2="14"/><path class="a" d="M46.5,47.5c1.17,1.13,2.58,0,3.78-.84s4.93-.64,6.26,4.15c.76,2.09,2.12,2,2.12,2"/><path class="a" d="M33.6,75.38c-.14,1.69,2.74,2.6,2.74,2.6"/><path class="a" d="M37.57,57.55c1.59-2.37-3.39-4.26-3-7.54-.1-2.81,3.4-2.23,4.83-.91C40.59,50.81,41.7,53,44,53.51c1.13.15,2.13-.7,3-1.5,5.47-4.86,4.31,4.42,8.24,4.85s6.85.56,5.69,4.2c-1.89,1.77-7.2.84-7.24,4.72.19,1.62,2.46,2.43,2.54,4.06s-1.84,3.48-3.54,3.06c-4-1.22-5.59-8.36-8.6-4.12-1.49,3.22-3.44,2.74-4.13,2.41-2.65-1.64.53-7.31-4-7-4.24,1.35-6.23-2-5.1-5S36,59.93,37.57,57.55Z"/><path class="a" d="M37.12,72s.56,3.73,6,2.6"/><path class="a" d="M44.83,59.53a5.7,5.7,0,0,0,2-2.42c3.2-.46,4.84,5.22,2,6.9-1.4,1.15-2.77-.66-4.12-1C44.09,62.48,44.39,60.1,44.83,59.53Z"/></svg>