<svg xmlns="http://www.w3.org/2000/svg" width="95.92" height="110.2" viewBox="0 0 95.92 110.2"><defs><style>.a,.b{fill:none;}.b{stroke:#231f20;stroke-linecap:round;stroke-linejoin:round;stroke-width:2px;}</style></defs><rect class="a" x="1.37" width="94.15" height="109.67"/><polygon class="b" points="46.18 35.07 46.18 36.11 50.31 36.11 50.31 35.07 50.31 36.11 46.18 36.11 46.18 35.07"/><line class="b" x1="42.05" y1="41" x2="55.47" y2="41"/><polygon class="b" points="79.44 62.94 79.44 75.32 94.92 75.32 94.92 46.43 63.95 46.43 63.95 31.98 63.95 18.56 48.22 18.56 48.11 18.56 31.96 18.56 31.96 33.01 31.96 46.43 1 46.43 1 75.32 15.45 75.32 15.45 62.94 15.45 75.32 15.45 109.2 79.44 109.2 79.44 75.32 79.44 62.94"/><rect class="b" x="37.93" y="26.82" width="6.19" height="5.16"/><rect class="b" x="52.37" y="26.82" width="6.19" height="5.16"/><path class="b" d="M52.37,32h6.2V26.82h-6.2Zm2.77-2.17a.22.22,0,0,1,.22-.23h.22a.23.23,0,0,1,.23.23V30a.23.23,0,0,1-.23.23h-.22a.22.22,0,0,1-.22-.23Z"/><path class="b" d="M44.12,26.82H37.93V32h6.19ZM41.36,30a.23.23,0,0,1-.23.23h-.22a.22.22,0,0,1-.22-.23v-.21a.22.22,0,0,1,.22-.23h.22a.23.23,0,0,1,.23.23Z"/><polygon class="b" points="31.96 17.53 47.7 17.53 63.95 17.53 63.95 18.56 63.95 31.98 64.06 31.98 71.18 31.98 71.28 31.98 71.18 31.77 71.18 10.3 46.99 10.3 23.7 10.3 23.7 33.01 31.96 33.01 31.96 18.56 31.96 17.53"/><line class="b" x1="37.93" y1="24.07" x2="43.09" y2="24.07"/><line class="b" x1="53.36" y1="24.07" x2="58.52" y2="24.07"/></svg>