<svg xmlns="http://www.w3.org/2000/svg" width="118.75" height="110.67" viewBox="0 0 118.75 110.67"><defs><style>.a,.b{fill:none;}.b{stroke:#231f20;stroke-linecap:round;stroke-linejoin:round;stroke-width:2px;}</style></defs><rect class="a" x="13.3" width="94.15" height="109.67"/><polygon class="b" points="57.17 43.63 57.17 44.91 62.3 44.91 62.3 43.63 62.3 44.91 57.17 44.91 57.17 43.63"/><line class="b" x1="52.04" y1="50.99" x2="68.72" y2="50.99"/><polygon class="b" points="98.51 78.27 98.51 93.66 117.75 93.66 117.75 57.74 79.26 57.74 79.26 39.78 79.26 23.1 59.7 23.1 59.57 23.1 39.49 23.1 39.49 41.06 39.49 57.74 1 57.74 1 93.66 18.96 93.66 18.96 78.27 18.96 93.66 18.96 109.67 98.51 109.67 98.51 93.66 98.51 78.27"/><rect class="b" x="46.91" y="33.36" width="7.7" height="6.42"/><rect class="b" x="64.87" y="33.36" width="7.7" height="6.42"/><path class="b" d="M64.87,39.78h7.7V33.36h-7.7Zm3.43-2.7a.28.28,0,0,1,.28-.28h.27a.27.27,0,0,1,.28.28v.27a.28.28,0,0,1-.28.28h-.27a.29.29,0,0,1-.28-.28Z"/><path class="b" d="M54.6,33.36H46.91v6.42H54.6Zm-3.43,4a.29.29,0,0,1-.28.28h-.27a.29.29,0,0,1-.28-.28v-.27a.28.28,0,0,1,.28-.28h.27a.28.28,0,0,1,.28.28Z"/><polygon class="b" points="39.49 21.82 59.05 21.82 79.26 21.82 79.26 23.1 79.26 39.78 79.39 39.78 88.25 39.78 88.38 39.78 88.25 39.52 88.25 12.83 58.17 12.83 29.23 12.83 29.23 41.06 39.49 41.06 39.49 23.1 39.49 21.82"/><line class="b" x1="46.91" y1="29.95" x2="53.32" y2="29.95"/><line class="b" x1="66.09" y1="29.95" x2="72.51" y2="29.95"/></svg>