<svg xmlns="http://www.w3.org/2000/svg" width="94.15" height="109.67" viewBox="0 0 94.15 109.67"><defs><style>.a,.c{fill:none;}.a{stroke:#231f20;stroke-linecap:round;stroke-linejoin:round;stroke-width:2px;}.b{fill:#231f20;}</style></defs><polyline class="a" points="45.09 31.85 45.09 32.65 48.26 32.65 48.26 31.85"/><rect class="a" x="49.85" y="25.51" width="4.75" height="3.96"/><rect class="b" x="51.43" y="27.1" width="1.58" height="1.58" rx="0.79"/><rect class="a" x="38.75" y="25.51" width="4.75" height="3.96"/><rect class="b" x="40.34" y="27.1" width="1.58" height="1.58" rx="0.79"/><polygon class="a" points="47.27 85.74 59.36 85.74 59.36 96.83 83.13 96.83 83.13 85.74 71.24 85.74 71.24 62.76 83.13 62.76 83.13 40.57 59.36 40.57 59.36 19.17 47.27 19.17 47.19 19.17 34.79 19.17 34.79 40.57 11.02 40.57 11.02 62.76 22.11 62.76 22.11 85.74 11.02 85.74 11.02 96.83 34.79 96.83 34.79 85.74 47.19 85.74 47.27 85.74"/><polygon class="a" points="64.91 29.32 64.91 12.83 46.33 12.83 28.45 12.83 28.45 30.27 34.79 30.27 34.79 18.38 46.87 18.38 59.36 18.38 59.36 29.48 59.44 29.48 64.91 29.48 64.98 29.48 64.91 29.32"/><line class="a" x1="22.11" y1="62.76" x2="22.11" y2="53.25"/><line class="a" x1="71.24" y1="62.76" x2="71.24" y2="53.25"/><line class="a" x1="41.92" y1="36.61" x2="52.23" y2="36.61"/><line class="a" x1="38.75" y1="23.14" x2="42.72" y2="23.14"/><line class="a" x1="50.64" y1="23.14" x2="54.6" y2="23.14"/><rect class="c" width="94.15" height="109.67"/></svg>