<svg xmlns="http://www.w3.org/2000/svg" width="94.15" height="109.67" viewBox="0 0 94.15 109.67"><defs><style>.a,.c,.d{fill:none;}.a,.c{stroke:#231f20;stroke-linecap:round;stroke-linejoin:round;}.b{fill:#231f20;}.c{stroke-width:2px;}</style></defs><polyline class="a" points="45.88 40.96 45.88 41.44 47.79 41.44 47.79 40.96"/><rect class="a" x="48.75" y="37.13" width="2.87" height="2.39"/><rect class="b" x="49.71" y="38.09" width="0.96" height="0.96" rx="0.48"/><rect class="a" x="42.05" y="37.13" width="2.87" height="2.39"/><rect class="b" x="43.01" y="38.09" width="0.96" height="0.96" rx="0.48"/><polygon class="c" points="47.2 73.49 54.49 73.49 54.49 80.19 68.84 80.19 68.84 73.49 61.67 73.49 61.67 59.62 68.84 59.62 68.84 46.22 54.49 46.22 54.49 33.3 47.2 33.3 47.15 33.3 39.66 33.3 39.66 46.22 25.3 46.22 25.3 59.62 32 59.62 32 73.49 25.3 73.49 25.3 80.19 39.66 80.19 39.66 73.49 47.15 73.49 47.2 73.49"/><polygon class="c" points="57.84 39.43 57.84 29.48 46.63 29.48 35.83 29.48 35.83 40 39.66 40 39.66 32.83 46.95 32.83 54.49 32.83 54.49 39.52 54.54 39.52 57.84 39.52 57.89 39.52 57.84 39.43"/><line class="c" x1="32" y1="59.62" x2="32" y2="53.88"/><line class="c" x1="61.67" y1="59.62" x2="61.67" y2="53.88"/><line class="a" x1="43.96" y1="43.83" x2="50.18" y2="43.83"/><line class="a" x1="42.05" y1="35.7" x2="44.44" y2="35.7"/><line class="a" x1="49.23" y1="35.7" x2="51.62" y2="35.7"/><rect class="d" width="94.15" height="109.67"/></svg>