<svg xmlns="http://www.w3.org/2000/svg" width="94.15" height="109.67" viewBox="0 0 94.15 109.67"><defs><style>.a,.c{fill:none;}.a{stroke:#231f20;stroke-linecap:round;stroke-linejoin:round;stroke-width:2px;}.b{fill:#231f20;}</style></defs><polyline class="a" points="44.57 25.83 44.57 26.83 48.57 26.83 48.57 25.83"/><rect class="a" x="50.57" y="17.83" width="6" height="5"/><rect class="b" x="52.57" y="19.83" width="2" height="2" rx="0.87"/><rect class="a" x="36.57" y="17.83" width="6" height="5"/><rect class="b" x="38.57" y="19.83" width="2" height="2" rx="0.87"/><polygon class="a" points="47.33 93.83 62.57 93.83 62.57 107.83 92.57 107.83 92.57 93.83 77.57 93.83 77.57 64.83 92.57 64.83 92.57 36.83 62.57 36.83 62.57 9.83 47.33 9.83 47.22 9.83 31.57 9.83 31.57 36.83 1.57 36.83 1.57 64.83 15.57 64.83 15.57 93.83 1.57 93.83 1.57 107.83 31.57 107.83 31.57 93.83 47.22 93.83 47.33 93.83"/><polygon class="a" points="69.57 22.63 69.57 1.83 46.14 1.83 23.57 1.83 23.57 23.83 31.57 23.83 31.57 8.83 46.82 8.83 62.57 8.83 62.57 22.83 62.67 22.83 69.57 22.83 69.68 22.83 69.57 22.63"/><line class="a" x1="15.57" y1="64.83" x2="15.57" y2="52.83"/><line class="a" x1="77.57" y1="64.83" x2="77.57" y2="52.83"/><line class="a" x1="40.57" y1="31.83" x2="53.57" y2="31.83"/><line class="a" x1="36.57" y1="14.83" x2="41.57" y2="14.83"/><line class="a" x1="51.57" y1="14.83" x2="56.57" y2="14.83"/><rect class="c" width="94.15" height="109.67"/></svg>