<svg xmlns="http://www.w3.org/2000/svg" width="91.9" height="108.42" viewBox="0 0 91.9 108.42"><defs><style>.a{fill:none;stroke:#231f20;stroke-linecap:round;stroke-linejoin:round;stroke-width:2px;}.b{fill:#231f20;}</style></defs><polyline class="a" points="44.23 24.89 44.23 26.22 47.47 26.22 47.47 24.89"/><line class="a" x1="36.61" y1="13.92" x2="40.75" y2="13.47"/><line class="a" x1="51.61" y1="13.47" x2="55.75" y2="13.92"/><rect class="a" x="49.94" y="17.64" width="5.84" height="5.17"/><rect class="b" x="51.76" y="20.22" width="2.21" height="3.01" rx="1.1"/><rect class="a" x="36.14" y="17.64" width="5.84" height="5.17"/><rect class="b" x="37.96" y="20.22" width="2.21" height="3.01" rx="1.1"/><path class="a" d="M53.22,34c-2-2.26-5.55-2.26-7.27-2.26s-5.62-.06-7.27,2.26"/><polygon class="a" points="46 93.38 61.39 93.38 61.39 107.42 90.9 107.42 90.9 93.38 76.95 93.38 76.95 64.44 90.9 64.44 90.9 36.13 61.39 36.13 61.39 8.72 46 8.72 45.9 8.72 30.51 8.72 30.51 36.13 1 36.13 1 64.44 14.75 64.44 14.75 93.38 1 93.38 1 107.42 30.51 107.42 30.51 93.38 45.9 93.38 46 93.38"/><polygon class="a" points="68.35 22.6 68.35 1 45.41 1 23.33 1 23.33 23.23 30.84 23.23 30.84 8.37 45.41 8.37 61.29 8.37 61.29 22.81 61.39 22.81 68.35 22.81 68.45 22.81 68.35 22.6"/><line class="a" x1="14.75" y1="64.44" x2="14.75" y2="52.65"/><line class="a" x1="76.95" y1="64.44" x2="76.95" y2="52.65"/></svg>